# xmcd
#
# Track frame offsets:
#	150
#	17225
#	34590
#	51312
#	70425
#	93525
#	109375
#	121775
#	146500
#	165270
#
# Disc length: 2480 seconds
#
# Revision: 1
# Processed by: cddbd v1.5PL3 Copyright (c) Steve Scherf et al.
# Submitted via: CDex 1.50Beta5
#
DISCID=8609ae0a
DTITLE=織田哲郎 - ボイス
DYEAR=1991
DGENRE=Pop
TTITLE0=SHINE THE LIGHT
TTITLE1=夏の夜の出来事
TTITLE2=夢の終わりに
TTITLE3=時を越えて
TTITLE4=2001年
TTITLE5=NIGHT
TTITLE6=R&R FANTASY
TTITLE7=さよならBABE
TTITLE8=LAST LULLABY FOR YOU
TTITLE9=SOMEBODY TO LOVE
EXTD=
EXTT0=
EXTT1=
EXTT2=
EXTT3=
EXTT4=
EXTT5=
EXTT6=
EXTT7=
EXTT8=
EXTT9=
PLAYORDER=
